<?xml version="1.0" encoding="utf-8"?>
<!-- Generator: Adobe Illustrator 24.0.1, SVG Export Plug-In . SVG Version: 6.00 Build 0)  -->
<svg version="1.1" id="Слой_1" xmlns="http://www.w3.org/2000/svg" xmlns:xlink="http://www.w3.org/1999/xlink" x="0px" y="0px"
	 viewBox="0 0 146.22 146.22" style="enable-background:new 0 0 146.22 146.22;" xml:space="preserve">
<style type="text/css">
	.st0{fill:#1E8C45;}
	.st1{fill:#58595B;}
</style>
<path class="st0" d="M68.15,45.78c-10.67,0-19.35,8.63-19.35,19.23c0,2.9,0.63,5.67,1.84,8.22c5.79,13.27,16.69,26.25,16.8,26.38
	l0.7,0.83l0.7-0.84c0.11-0.13,10.98-13.11,16.75-26.35c1.25-2.62,1.89-5.39,1.89-8.24C87.49,54.41,78.81,45.78,68.15,45.78z
	 M68.15,74.92c-5.59,0-10.13-4.55-10.13-10.13c0-5.59,4.55-10.13,10.13-10.13s10.13,4.55,10.13,10.13
	C78.28,70.38,73.73,74.92,68.15,74.92z"/>
<polygon class="st1" points="246.73,54.25 246.73,55.47 246.88,57.18 257.01,67.31 234.5,67.31 234.5,69.26 257,69.26 246.73,79.72 
	246.73,82.29 247.59,81.43 260.4,68.27 "/>
</svg>
