<svg xmlns="http://www.w3.org/2000/svg" width="20" height="35" viewBox="0 0 20 35">
    <path fill="#F29100" d="M1.316 34.58c.2 0 .401-.093.602-.28l17.316-15.855c.115-.114.212-.24.29-.376.08-.136.119-.275.119-.419 0-.272-.13-.537-.387-.795L1.939 1.043C1.854.971 1.76.903 1.66.839c-.1-.065-.215-.097-.344-.097-.157 0-.3.036-.43.108-.128.071-.228.175-.3.311-.072.136-.107.283-.107.44 0 .258.071.459.214.602L18.29 18.338v-1.354L.693 33.098c-.143.157-.214.365-.214.623 0 .157.035.3.107.43.072.128.172.232.3.311.13.079.273.118.43.118z"/>
</svg>